<svg width="156" height="125" viewBox="0 0 156 125" fill="none" xmlns="http://www.w3.org/2000/svg">
<circle cx="78" cy="60" r="60" fill="#FFF8F8"/>
<g clip-path="url(#clip0_205_731)">
<path d="M117.011 32.931H26.0229C24.915 32.931 24.0167 32.0328 24.0167 30.9251V15.282C24.0167 14.1741 24.915 13.2759 26.0229 13.2759H117.011C118.119 13.2759 119.017 14.1741 119.017 15.282V30.9251C119.017 32.0328 118.118 32.931 117.011 32.931Z" fill="#DBDDDD"/>
<path d="M101.818 32.931H116.56C117.917 32.931 119.017 31.8309 119.017 30.4742V15.7328C119.017 14.3759 117.916 13.276 116.56 13.276H101.818C100.461 13.276 99.3616 14.3761 99.3616 15.7328V30.4742C99.3616 31.8309 100.462 32.931 101.818 32.931Z" fill="#D60C18"/>
<path d="M90.3529 27.1983C92.6144 27.1983 94.4477 25.365 94.4477 23.1035C94.4477 20.842 92.6144 19.0087 90.3529 19.0087C88.0914 19.0087 86.2581 20.842 86.2581 23.1035C86.2581 25.365 88.0914 27.1983 90.3529 27.1983Z" fill="#5C546A"/>
<path d="M78.8874 27.1983C81.149 27.1983 82.9823 25.365 82.9823 23.1035C82.9823 20.842 81.149 19.0087 78.8874 19.0087C76.6259 19.0087 74.7926 20.842 74.7926 23.1035C74.7926 25.365 76.6259 27.1983 78.8874 27.1983Z" fill="#797585"/>
<path d="M117.011 59.138H26.0229C24.915 59.138 24.0167 58.2398 24.0167 57.1319V41.4888C24.0167 40.3809 24.915 39.4827 26.0229 39.4827H117.011C118.119 39.4827 119.017 40.3809 119.017 41.4888V57.1319C119.017 58.2398 118.118 59.138 117.011 59.138Z" fill="white"/>
<path d="M117.011 81.6553H26.0229C24.915 81.6553 24.0167 80.7571 24.0167 79.6492V64.0061C24.0167 62.8982 24.915 62 26.0229 62H117.011C118.119 62 119.017 62.8982 119.017 64.0061V79.6492C119.017 80.7571 118.118 81.6553 117.011 81.6553Z" fill="white"/>
<path d="M117.011 104.655H26.0229C24.915 104.655 24.0167 103.757 24.0167 102.649V87.0061C24.0167 85.8982 24.915 85 26.0229 85H117.011C118.119 85 119.017 85.8982 119.017 87.0061V102.649C119.017 103.757 118.118 104.655 117.011 104.655Z" fill="white"/>
<path d="M38.7581 55.862H28.9306C28.0261 55.862 27.2926 55.1285 27.2926 54.224V44.3963C27.2926 43.4918 28.0261 42.7583 28.9306 42.7583H38.7583C39.6628 42.7583 40.3963 43.4918 40.3963 44.3963V54.224C40.3961 55.1287 39.6626 55.862 38.7581 55.862Z" fill="#800008"/>
<path d="M104.275 54.2241H45.3099C44.4053 54.2241 43.6719 53.4907 43.6719 52.5861C43.6719 51.6816 44.4053 50.9481 45.3099 50.9481H104.275C105.18 50.9481 105.913 51.6816 105.913 52.5861C105.913 53.4907 105.18 54.2241 104.275 54.2241Z" fill="#B9BBC1"/>
<path d="M78.0684 47.6724H45.3099C44.4053 47.6724 43.6719 46.9389 43.6719 46.0344C43.6719 45.1298 44.4053 44.3964 45.3099 44.3964H78.0684C78.9729 44.3964 79.7064 45.1298 79.7064 46.0344C79.7064 46.9391 78.9729 47.6724 78.0684 47.6724Z" fill="#D60C18"/>
<path d="M38.7581 78.7931H28.9306C28.0261 78.7931 27.2926 78.0597 27.2926 77.1551V67.3275C27.2926 66.4229 28.0261 65.6895 28.9306 65.6895H38.7583C39.6628 65.6895 40.3963 66.4229 40.3963 67.3275V77.1551C40.3961 78.0597 39.6626 78.7931 38.7581 78.7931Z" fill="#800008"/>
<path d="M104.275 77.1552H45.3099C44.4053 77.1552 43.6719 76.4217 43.6719 75.5172C43.6719 74.6126 44.4053 73.8792 45.3099 73.8792H104.275C105.18 73.8792 105.913 74.6126 105.913 75.5172C105.913 76.4217 105.18 77.1552 104.275 77.1552Z" fill="#B9BBC1"/>
<path d="M78.0684 70.6035H45.3099C44.4053 70.6035 43.6719 69.8701 43.6719 68.9655C43.6719 68.061 44.4053 67.3275 45.3099 67.3275H78.0684C78.9729 67.3275 79.7064 68.061 79.7064 68.9655C79.7064 69.8701 78.9729 70.6035 78.0684 70.6035Z" fill="#D60C18"/>
<path d="M38.7581 101.724H28.9306C28.0261 101.724 27.2926 100.991 27.2926 100.086V90.2585C27.2926 89.354 28.0261 88.6205 28.9306 88.6205H38.7583C39.6628 88.6205 40.3963 89.354 40.3963 90.2585V100.086C40.3961 100.991 39.6626 101.724 38.7581 101.724Z" fill="#800008"/>
<path d="M104.275 100.086H45.3099C44.4053 100.086 43.6719 99.3527 43.6719 98.4482C43.6719 97.5436 44.4053 96.8102 45.3099 96.8102H104.275C105.18 96.8102 105.913 97.5436 105.913 98.4482C105.913 99.3529 105.18 100.086 104.275 100.086Z" fill="#B9BBC1"/>
<path d="M78.0684 93.5346H45.3099C44.4053 93.5346 43.6719 92.8011 43.6719 91.8966C43.6719 90.992 44.4053 90.2585 45.3099 90.2585H78.0684C78.9729 90.2585 79.7064 90.992 79.7064 91.8966C79.7064 92.8011 78.9729 93.5346 78.0684 93.5346Z" fill="#D60C18"/>
<path d="M110.517 24.5L114.017 28L110.517 24.5ZM107.767 25.5C109.838 25.5 111.517 23.8211 111.517 21.75C111.517 19.6789 109.838 18 107.767 18C105.696 18 104.017 19.6789 104.017 21.75C104.017 23.8211 105.696 25.5 107.767 25.5Z" stroke="white" stroke-width="2"/>
</g>
<rect width="1.00102" height="7.11357" rx="0.50051" transform="matrix(0.969311 -0.245838 0.23806 0.97125 11.2019 41.6519)" fill="#D60C18"/>
<rect width="1.01668" height="7.00732" rx="0.508338" transform="matrix(0.238058 0.971251 -0.96931 0.245841 15.8088 43.6285)" fill="#D60C18"/>
<rect width="1.00054" height="7.11696" rx="0.500269" transform="matrix(0.984293 0.176544 -0.170797 0.985306 3.6488 117.681)" fill="#D60C18"/>
<rect width="1.01716" height="7.00378" rx="0.508578" transform="matrix(-0.170801 0.985306 -0.984294 -0.17654 7.0675 121.393)" fill="#D60C18"/>
<rect width="1.00835" height="7.06262" rx="0.504173" transform="matrix(0.713382 -0.700776 0.688494 0.725242 149.743 52.9479)" fill="#D60C18"/>
<rect width="1.00895" height="7.05843" rx="0.504474" transform="matrix(0.688491 0.725245 -0.713378 0.700779 154.704 52.1282)" fill="#D60C18"/>
<defs>
<clipPath id="clip0_205_731">
<rect width="95" height="95" fill="white" transform="translate(24.0167 10)"/>
</clipPath>
</defs>
</svg>
