<svg width="128" height="126" viewBox="0 0 128 126" fill="none" xmlns="http://www.w3.org/2000/svg">
<circle cx="64" cy="60" r="60" fill="#FFF8F8"/>
<rect width="1.00102" height="7.11357" rx="0.50051" transform="matrix(0.969311 -0.245838 0.23806 0.97125 11.2017 42.6691)" fill="#D60C18"/>
<rect width="1.01669" height="7.00732" rx="0.508343" transform="matrix(0.238058 0.971251 -0.96931 0.245841 15.8086 44.6458)" fill="#D60C18"/>
<rect width="1.00052" height="7.11696" rx="0.500262" transform="matrix(0.984292 0.176546 -0.170795 0.985307 3.64844 118.698)" fill="#D60C18"/>
<rect width="1.01716" height="7.00375" rx="0.508578" transform="matrix(-0.170796 0.985306 -0.984293 -0.176545 7.06714 122.41)" fill="#D60C18"/>
<rect width="1.00835" height="7.06264" rx="0.504174" transform="matrix(0.713384 -0.700774 0.688496 0.72524 122.074 53.9651)" fill="#D60C18"/>
<rect width="1.00894" height="7.05841" rx="0.504472" transform="matrix(0.6885 0.725236 -0.713388 0.700769 127.035 53.1453)" fill="#D60C18"/>
<path d="M57.75 20.5L64 33L70.25 20.5H57.75Z" fill="#D60C18"/>
<path d="M80.125 21.75L79.25 35.75L90.875 28L80.125 21.75Z" fill="#D60C18"/>
<path d="M37.125 28L48.875 35.75L48 21.75L37.125 28Z" fill="#D60C18"/>
<path d="M89.0164 97.5H74.2664V81.375L91.5164 85.375C87.3914 89.75 89.0164 97.5 89.0164 97.5Z" fill="#E0A372"/>
<path d="M87.6414 97.5H71.1414C71.1414 97.5 71.3914 89.5 68.6414 82.625L89.2664 85.625C86.8914 91.75 87.6414 97.5 87.6414 97.5Z" fill="#FED0AC"/>
<path d="M86.0164 75.5H92.2664V47.75C92.2664 45.875 90.8914 44.375 89.1414 44.375C87.3914 44.375 86.0164 45.875 86.0164 47.875V75.5" fill="#FED0AC"/>
<path d="M78.6414 75.5H86.0164V45.375C86.0164 43.125 84.3914 41.25 82.2664 41.25C80.2664 41.25 78.5164 43.125 78.5164 45.375C78.6414 45.375 78.6414 75.5 78.6414 75.5" fill="#FED0AC"/>
<path d="M72.2664 75.5H78.7664V47.125C78.7664 45.125 77.2664 43.5 75.5164 43.5C73.7664 43.5 72.2664 45.125 72.2664 47.125V75.5Z" fill="#FED0AC"/>
<path d="M69.2664 47.75C67.6414 47.75 66.3914 49.25 66.3914 51.125V75.5H72.2664V51.125C72.2664 49.25 70.8914 47.75 69.2664 47.75Z" fill="#FED0AC"/>
<path d="M89.1414 44.25H88.5164C90.0164 44.5 91.1414 46 91.1414 47.625V75.5H92.2664V47.75C92.2664 45.875 90.8914 44.25 89.1414 44.25Z" fill="#E0A372"/>
<path d="M82.3914 41.25C82.1414 41.25 82.0164 41.25 81.8914 41.375C83.6414 41.625 85.0164 43.375 85.0164 45.375V65.5L86.1414 66.75V45.375C86.0164 43.125 84.3914 41.25 82.3914 41.25" fill="#E0A372"/>
<path d="M75.5164 43.5H75.0164C76.5164 43.75 77.6414 45.25 77.6414 47V65.375L78.7664 66.625V47.125C78.6414 45.125 77.2664 43.5 75.5164 43.5Z" fill="#E0A372"/>
<path d="M69.2664 47.75C69.0164 47.75 68.8914 47.75 68.7664 47.875C70.1414 48.125 71.1414 49.5 71.1414 51.125V65.5L72.2664 66.75V51.125C72.2664 49.25 70.8914 47.75 69.2664 47.75Z" fill="#E0A372"/>
<path d="M102.766 62.75C100.891 60.625 97.1413 61.625 94.5163 67.125C92.6413 70.875 92.1413 70.125 91.1413 70.375V67C91.1413 67 66.2663 65.375 66.2663 69.125C66.2663 69.125 65.1413 78.375 67.5163 84.125C71.1413 92.75 89.6413 95 95.3913 80.375C96.5163 77.5 98.1413 74.375 99.3913 71.25C101.016 67.5 104.891 65.25 102.766 62.75Z" fill="#FED0AC"/>
<path d="M101.516 61.875C105.516 64.875 98.1414 70.625 94.6414 79.5C89.6414 92.25 75.0164 92.25 68.8914 86.375C74.5164 93 90.1414 94.25 95.3914 80.375C98.8914 71.375 107.391 64.5 101.516 61.875Z" fill="#E0A372"/>
<path d="M92.2664 70.25C87.3914 68.5 77.1414 71.875 78.5164 81.625C78.5164 72.5 86.6414 70.375 91.1414 70.375C91.7664 70.375 92.2664 70.25 92.2664 70.25Z" fill="#E0A372"/>
<path d="M38.5144 98.25H53.2644V82.125L36.0144 86.125C40.1394 90.5 38.5144 98.25 38.5144 98.25" fill="#E0A372"/>
<path d="M39.8894 98.25H56.3894C56.3894 98.25 56.1394 90.25 58.8894 83.375L38.2644 86.375C40.6394 92.5 39.8894 98.25 39.8894 98.25Z" fill="#FED0AC"/>
<path d="M41.5144 76.25H35.2644V48.5C35.2644 46.625 36.6394 45.125 38.3894 45.125C40.1394 45.125 41.5144 46.625 41.5144 48.625V76.25" fill="#FED0AC"/>
<path d="M48.8894 76.25H41.5144V46.125C41.5144 43.875 43.1394 42 45.2644 42C47.2644 42 49.0144 43.875 49.0144 46.125V76.25H48.8894Z" fill="#FED0AC"/>
<path d="M55.2644 76.25H48.7644V47.875C48.7644 45.875 50.2644 44.25 52.0144 44.25C53.7644 44.25 55.2644 45.875 55.2644 47.875V76.25Z" fill="#FED0AC"/>
<path d="M58.2644 48.5C59.8894 48.5 61.1394 50 61.1394 51.875V76.25H55.2644V51.875C55.2644 50 56.6394 48.5 58.2644 48.5Z" fill="#FED0AC"/>
<path d="M38.3894 45H39.0144C37.5144 45.25 36.3894 46.75 36.3894 48.375V76.25H35.2644V48.5C35.2644 46.625 36.6394 45 38.3894 45Z" fill="#E0A372"/>
<path d="M45.1394 42C45.3894 42 45.5144 42 45.6394 42.125C43.8894 42.375 42.5144 44.125 42.5144 46.125V66.25L41.3894 67.5V46.125C41.5144 43.875 43.1394 42 45.1394 42Z" fill="#E0A372"/>
<path d="M52.0144 44.25H52.5144C51.0144 44.5 49.8894 46 49.8894 47.75V66.125L48.7644 67.375V47.875C48.8894 45.875 50.2644 44.25 52.0144 44.25Z" fill="#E0A372"/>
<path d="M58.2644 48.5C58.5144 48.5 58.6394 48.5 58.7644 48.625C57.3894 48.875 56.3894 50.25 56.3894 51.875V66.25L55.2644 67.5V51.875C55.2644 50 56.6394 48.5 58.2644 48.5Z" fill="#E0A372"/>
<path d="M24.7646 63.5C26.6396 61.375 30.3896 62.375 33.0146 67.875C34.8896 71.625 35.3896 70.875 36.3896 71.125V67.75C36.3896 67.75 61.2646 66.125 61.2646 69.875C61.2646 69.875 62.3896 79.125 60.0146 84.875C56.3896 93.5 37.8896 95.75 32.1396 81.125C31.0146 78.25 29.3896 75.125 28.1396 72C26.5146 68.25 22.6396 66 24.7646 63.5" fill="#FED0AC"/>
<path d="M26.0145 62.625C22.0145 65.625 29.3895 71.375 32.8895 80.25C37.8895 93 52.5145 93 58.6395 87.125C53.0145 93.75 37.3895 95 32.1395 81.125C28.6395 72.125 20.1395 65.25 26.0145 62.625Z" fill="#E0A372"/>
<path d="M35.2644 71C40.1394 69.25 50.3894 72.625 49.0144 82.375C49.0144 73.25 40.8894 71.125 36.3894 71.125C35.7644 71.125 35.2644 71 35.2644 71Z" fill="#E0A372"/>
</svg>
