<svg width="198" height="123" viewBox="0 0 198 123" fill="none" xmlns="http://www.w3.org/2000/svg">
<circle cx="99" cy="62" r="60" fill="#FFF8F8"/>
<g clip-path="url(#clip0_205_669)">
<path d="M172.767 25.3087H75.2671V85.3087H172.767V25.3087Z" fill="white"/>
<path d="M171.626 17.8087H76.4043C71.6415 17.8087 67.7671 21.6743 67.7671 26.4257V94.6837C67.7671 95.7201 68.6057 96.5587 69.6421 96.5587H178.392C179.428 96.5587 180.267 95.7201 180.267 94.6837V26.4257C180.267 21.6743 176.391 17.8087 171.626 17.8087ZM75.2671 83.4337V27.1837C75.2671 26.1482 76.1066 25.3087 77.1421 25.3087H170.892C171.928 25.3087 172.767 26.1482 172.767 27.1837V83.4337C172.767 84.4692 171.928 85.3087 170.892 85.3087H77.1421C76.1066 85.3087 75.2671 84.4692 75.2671 83.4337Z" fill="#5C546A"/>
<path d="M182.142 92.8087H65.8921C64.8557 92.8087 64.0171 93.6473 64.0171 94.6837C64.0171 98.8237 67.3844 102.191 71.5244 102.191H176.51C180.65 102.191 184.017 98.8237 184.017 94.6837C184.017 93.6473 183.178 92.8087 182.142 92.8087Z" fill="#B9BBC1"/>
<path d="M116.517 72.9547H84.6421C83.6066 72.9547 82.7671 72.1152 82.7671 71.0797V41.0797C82.7671 40.0442 83.6066 39.2047 84.6421 39.2047H116.517C117.553 39.2047 118.392 40.0442 118.392 41.0797V71.0797C118.392 72.1152 117.553 72.9547 116.517 72.9547Z" fill="#DBDDDD"/>
<path d="M161.517 42.9547H125.892C124.856 42.9547 124.017 42.1161 124.017 41.0797C124.017 40.0433 124.856 39.2047 125.892 39.2047H161.517C162.553 39.2047 163.392 40.0433 163.392 41.0797C163.392 42.1161 162.553 42.9547 161.517 42.9547Z" fill="#800008"/>
<path d="M140.892 57.9547H125.892C124.856 57.9547 124.017 57.1161 124.017 56.0797C124.017 55.0433 124.856 54.2047 125.892 54.2047H140.892C141.928 54.2047 142.767 55.0433 142.767 56.0797C142.767 57.1161 141.928 57.9547 140.892 57.9547Z" fill="#B9BBC1"/>
<path d="M140.892 65.4547H125.892C124.856 65.4547 124.017 64.6161 124.017 63.5797C124.017 62.5433 124.856 61.7047 125.892 61.7047H140.892C141.928 61.7047 142.767 62.5433 142.767 63.5797C142.767 64.6161 141.928 65.4547 140.892 65.4547Z" fill="#B9BBC1"/>
<path d="M140.892 72.9547H125.892C124.856 72.9547 124.017 72.1161 124.017 71.0797C124.017 70.0433 124.856 69.2047 125.892 69.2047H140.892C141.928 69.2047 142.767 70.0433 142.767 71.0797C142.767 72.1161 141.928 72.9547 140.892 72.9547Z" fill="#B9BBC1"/>
<path d="M163.392 57.9547H148.392C147.356 57.9547 146.517 57.1161 146.517 56.0797C146.517 55.0433 147.356 54.2047 148.392 54.2047H163.392C164.428 54.2047 165.267 55.0433 165.267 56.0797C165.267 57.1161 164.428 57.9547 163.392 57.9547Z" fill="#B9BBC1"/>
<path d="M163.392 65.4547H148.392C147.356 65.4547 146.517 64.6161 146.517 63.5797C146.517 62.5433 147.356 61.7047 148.392 61.7047H163.392C164.428 61.7047 165.267 62.5433 165.267 63.5797C165.267 64.6161 164.428 65.4547 163.392 65.4547Z" fill="#B9BBC1"/>
<path d="M163.392 72.9547H148.392C147.356 72.9547 146.517 72.1161 146.517 71.0797C146.517 70.0433 147.356 69.2047 148.392 69.2047H163.392C164.428 69.2047 165.267 70.0433 165.267 71.0797C165.267 72.1161 164.428 72.9547 163.392 72.9547Z" fill="#B9BBC1"/>
<path d="M150.267 50.4547H125.892C124.856 50.4547 124.017 49.6161 124.017 48.5797C124.017 47.5433 124.856 46.7047 125.892 46.7047H150.267C151.303 46.7047 152.142 47.5433 152.142 48.5797C152.142 49.6161 151.303 50.4547 150.267 50.4547Z" fill="#D60C18"/>
<path d="M116.517 96.5587H131.517C133.588 96.5587 135.267 94.8797 135.267 92.8087H112.767C112.767 94.8799 114.446 96.5587 116.517 96.5587Z" fill="#8B8996"/>
<path d="M98.3758 51.5538C98.1876 51.5541 98.0026 51.6035 97.8392 51.697C97.4712 51.9055 97.2424 52.3103 97.2424 52.7497V61.6428C97.2424 62.0835 97.4712 62.4871 97.8392 62.6956C98.0065 62.7918 98.1966 62.8412 98.3895 62.8388C98.5825 62.8364 98.7713 62.7821 98.9361 62.6818L106.537 58.1322C106.695 58.0329 106.826 57.895 106.916 57.7314C107.007 57.5678 107.054 57.3839 107.054 57.1969C107.054 57.0099 107.007 56.826 106.916 56.6624C106.826 56.4988 106.695 56.3609 106.537 56.2616L98.9349 51.7108C98.7662 51.6088 98.573 51.5545 98.3758 51.5538V51.5538Z" fill="#D60C18"/>
</g>
<g clip-path="url(#clip1_205_669)">
<path d="M46.6157 62.1086C43.4593 56.0781 37.1059 51.9495 29.799 51.9495L29.7879 51.9496C29.7814 51.9495 29.775 51.9495 29.7702 51.9495C19.3423 51.9495 10.8558 60.3586 10.8339 70.704C10.7876 71.6311 10.725 74.8508 11.7547 78.7355L14.8487 77.9128C13.8981 74.3072 13.9985 71.3465 14.0239 70.8497L14.0256 70.8184C14.0268 70.7938 14.0274 70.7692 14.0274 70.7446C14.0274 62.1326 21.0833 55.1253 29.7589 55.1195C29.7615 55.1195 29.7641 55.1195 29.7654 55.1195C29.778 55.1196 29.791 55.1196 29.8039 55.1195H29.8097C38.4852 55.1254 45.542 62.1326 45.542 70.7446C45.542 70.7692 45.5426 70.7938 45.5437 70.8184L45.5453 70.8495C45.5713 71.3524 45.6741 74.38 44.6854 78.0458L47.7603 78.8634C47.7666 78.8652 47.7726 78.8676 47.7788 78.8695C48.8454 74.9255 48.7824 71.6422 48.7356 70.7043C48.7307 68.4316 48.3174 66.2524 47.5649 64.2352" fill="#DBDDDD"/>
<path d="M29.799 51.9495L29.7879 51.9496C29.7814 51.9495 29.775 51.9495 29.7702 51.9495C24.2067 51.9495 19.1961 54.3435 15.7285 58.1479L17.9895 60.392C20.8734 57.1627 25.0803 55.1224 29.759 55.1193C29.7616 55.1193 29.7642 55.1193 29.7655 55.1193C29.7782 55.1195 29.7911 55.1195 29.804 55.1193H29.8098C34.4885 55.1223 38.6957 57.1628 41.5799 60.3924L43.8411 58.148C40.3733 54.3436 35.3628 51.9495 29.799 51.9495Z" fill="#810008"/>
<path d="M48.5513 80.2706L48.8599 80.3528C51.1311 80.9569 52.4795 83.2743 51.8707 85.5287L49.969 92.5732C49.3604 94.8278 47.0253 96.1658 44.7541 95.5615L44.4456 95.4795L48.5513 80.2706Z" fill="#810008"/>
<path d="M10.4826 80.2706L10.1741 80.3528C7.90271 80.9569 6.55447 83.2743 7.16329 85.5287L9.06489 92.5732C9.67344 94.8278 12.0084 96.1658 14.2799 95.5615L14.5884 95.4795" fill="#810008"/>
<path d="M38.3612 93.9862C38.1786 94.6626 38.5829 95.3577 39.2647 95.5389L42.9663 96.5235C43.6476 96.7046 44.3483 96.3033 44.5307 95.6268L48.6634 80.3182C48.8459 79.6418 48.4416 78.9467 47.7602 78.7654L44.0586 77.7809C43.3771 77.5998 42.6765 78.0011 42.4939 78.6774L38.3612 93.9862Z" fill="#D60C18"/>
<path opacity="0.15" d="M45.3659 78.1517C45.37 78.1452 45.3741 78.1388 45.3784 78.1325L44.0582 77.7813C43.3767 77.6002 42.6762 78.0014 42.4936 78.6779L38.361 93.9865C38.1784 94.6629 38.5827 95.358 39.2644 95.5392L40.8001 95.9477C40.119 95.7662 39.7151 95.0714 39.8976 94.3952L44.0302 79.0866C44.1925 78.4859 44.7629 78.1033 45.3659 78.1517Z" fill="#231F20"/>
<path d="M20.3277 92.7065L20.6732 93.9862C20.8557 94.6627 20.4514 95.3577 19.7696 95.539L16.068 96.5235C15.3867 96.7046 14.6862 96.3034 14.5036 95.6269L10.3708 80.3184C10.1881 79.642 10.5924 78.9469 11.2742 78.7657L14.9758 77.7811C15.6571 77.6 16.3576 78.0013 16.5404 78.6777L19.7047 90.3988" fill="#D60C18"/>
<path opacity="0.15" d="M15.9952 95.2366L11.8624 79.928C11.6923 79.2979 12.0317 78.6522 12.63 78.42C12.6289 78.4153 12.6277 78.4106 12.6267 78.406L11.2742 78.7656C10.5924 78.9469 10.1881 79.6419 10.3708 80.3184L14.5036 95.6271C14.6862 96.3035 15.3867 96.7047 16.068 96.5237L17.4413 96.1585C16.7991 96.2665 16.1673 95.8738 15.9952 95.2366Z" fill="#231F20"/>
<path d="M35.9564 92.6043C35.8932 92.6043 35.829 92.5961 35.7651 92.5791C35.3716 92.4745 35.1382 92.0729 35.2436 91.6824L38.6334 79.1256C38.7387 78.7351 39.1431 78.5028 39.5368 78.608C39.9303 78.7125 40.1637 79.1142 40.0584 79.5046L36.6685 92.0614C36.5801 92.3885 36.2822 92.6043 35.9564 92.6043Z" fill="#DBDDDD"/>
<path d="M23.0773 92.6044C22.7516 92.6044 22.4537 92.3885 22.3654 92.0613L18.976 79.5047C18.8705 79.1141 19.1041 78.7128 19.4976 78.608C19.891 78.503 20.2955 78.7352 20.4008 79.1258L23.7902 91.6825C23.8957 92.0731 23.6622 92.4744 23.2686 92.5792C23.2047 92.5962 23.1404 92.6044 23.0773 92.6044Z" fill="#DBDDDD"/>
</g>
<rect x="2.18506" y="37.225" width="1" height="7" rx="0.5" transform="rotate(-14 2.18506 37.225)" fill="#D60C18"/>
<rect x="6.79199" y="39.1682" width="1" height="7" rx="0.5" transform="rotate(76 6.79199 39.1682)" fill="#D60C18"/>
<rect x="61.0623" y="116.007" width="1" height="7" rx="0.5" transform="rotate(17 61.0623 116.007)" fill="#D60C18"/>
<rect x="64.0103" y="120.045" width="1" height="7" rx="0.5" transform="rotate(107 64.0103 120.045)" fill="#D60C18"/>
<rect x="192.45" y="82.14" width="1" height="7" rx="0.5" transform="rotate(-10 192.45 82.14)" fill="#D60C18"/>
<rect x="196.911" y="84.3999" width="1" height="7" rx="0.5" transform="rotate(80 196.911 84.3999)" fill="#D60C18"/>
<defs>
<clipPath id="clip0_205_669">
<rect width="120" height="120" fill="white" transform="translate(64.0171)"/>
</clipPath>
<clipPath id="clip1_205_669">
<rect width="45" height="44.6639" fill="white" transform="translate(7.01709 51.9263)"/>
</clipPath>
</defs>
</svg>
