<svg width="341" height="37" viewBox="0 0 341 37" fill="none" xmlns="http://www.w3.org/2000/svg">
<path d="M29.4147 5.48699H24.4122C24.032 7.7867 23.3216 9.72329 22.2911 11.2968C21.2606 12.8703 19.6998 14.1311 17.6088 15.0691L16.028 12.961V30.7132C16.028 32.2161 15.6278 33.1541 14.8374 33.5475C14.067 33.9308 12.1761 34.1426 9.14454 34.1628L9.75486 31.2982C10.3552 31.3184 11.3056 31.3386 12.5963 31.3386C13.0265 31.3184 13.2466 31.0965 13.2466 30.6829V24.7622H5.25262C4.87243 28.827 3.8319 32.2463 2.15107 34.9999L0.390179 31.9841C1.97097 29.6844 2.77137 25.5288 2.77137 19.5273V13.7579L2.4512 14.1613L0 12.1642C2.47123 9.45096 4.37218 5.42646 5.69284 0.0705566L8.28413 2.31984L7.70382 4.1354L12.7864 3.99419L13.5768 5.99131L11.7358 10.0259H16.018V12.6383C17.6288 11.9121 18.8294 10.9639 19.6198 9.80399C20.4402 8.61379 21.0005 7.18151 21.3106 5.48699H16.018L17.6788 2.69303H32.5162C32.5162 5.42646 32.3862 7.72618 32.116 9.59217C31.8559 11.4582 31.5257 12.608 31.1455 13.0417C30.7153 13.6268 30.075 13.9596 29.2346 14.0605C28.3942 14.1613 26.8534 14.1714 24.6223 14.1008L25.5227 11.3371C27.2536 11.5792 28.2841 11.4985 28.6243 11.085C28.9744 10.6613 29.2446 8.80543 29.4147 5.48699ZM10.1751 6.75787H6.68332L5.17256 10.0259H8.84441L10.1751 6.75787ZM5.46271 12.5677V16.0172H8.20407V12.5677H5.46271ZM5.46271 18.5187V22.1902H8.20407V18.5187H5.46271ZM10.5353 12.5677V16.0172H13.2366V12.5677H10.5353ZM10.5353 22.1902H13.2366V18.5187H10.5353V22.1902ZM34.3071 24.6916L32.6463 27.6368H26.9234V34.8587L23.7518 33.1844V27.6268H15.7879L17.4487 24.6815H23.7518V20.7579H20.2201C19.7198 21.9683 19.0195 23.2896 18.129 24.7118L16.3681 21.9178C17.5487 20.4452 18.5292 17.742 19.3196 13.8184L21.7008 16.0374L21.2306 17.853H23.7518V13.536L26.9234 15.2103V17.8631H33.6267L31.9659 20.768H26.9234V24.6916H34.3071V24.6916Z" fill="#939EA7"/>
<path d="M68.6342 10.6009H66.8333C65.9228 16.3098 64.4421 20.9697 62.4011 24.5807C64.342 27.6066 67.0234 29.9467 70.4351 31.5908L66.7933 33.5879C64.4421 32.4481 62.291 30.4611 60.3501 27.6369C58.239 30.3199 55.2375 32.6801 51.3456 34.7176L50.8753 30.8646C53.9269 29.5836 56.4781 27.4856 58.5492 24.5807C57.3486 22.1801 56.308 19.2752 55.4176 15.866C54.8373 17.0562 54.207 18.1254 53.5066 19.0937C52.8863 18.5086 52.0059 17.8228 50.8753 17.0259C50.7353 22.5735 50.5752 26.4164 50.4051 28.5749C50.235 30.7032 49.9449 32.0447 49.5447 32.6095C49.0444 33.3559 48.3341 33.8098 47.4236 33.951C46.5332 34.0922 44.9224 34.1225 42.6012 34.0216L43.3916 31.0058C44.182 31.0562 44.8823 31.0764 45.4826 31.0764C46.0829 31.0764 46.5032 30.8948 46.7433 30.5317C47.2235 29.8559 47.5437 25.3473 47.7138 17.0259H43.6117C43.6117 20.5562 43.2515 23.7233 42.5312 26.5072C41.8108 29.2709 40.24 32.0144 37.8088 34.7478L36.258 31.2579C37.8188 29.6138 38.9094 27.5663 39.5397 25.1254C40.16 22.6844 40.4802 19.9611 40.4802 16.9553V9.69308H35.7278L37.3886 6.53602H42.7213V0.0706049L46.0329 1.74495V6.53602H53.1665L51.5056 9.69308H43.6217V13.9395H50.9654L50.8953 16.5216C53.4666 13.062 55.3476 7.55475 56.5482 0L59.6497 2.17867L58.4991 7.48415H70.315L68.6342 10.6009ZM57.5386 10.6009L57.3986 11.0346C58.169 14.928 59.1995 18.317 60.5001 21.2017C61.8408 18.3977 62.8413 14.8574 63.4916 10.6009H57.5386Z" fill="#939EA7"/>
<path d="M75.4777 18.7407V10.0966L73.3566 12.5274L72.6763 8.89628C74.6172 7.10089 76.2981 4.1859 77.7188 0.141235L79.7398 2.39052L78.7693 4.7104H81.4006L83.1615 0.645558L85.2125 2.71328L84.0219 4.7104H89.3546L87.6937 6.92942H83.9119V8.70463H87.8038V9.28965C89.9449 6.93951 91.6658 3.8934 92.9864 0.141235L95.0074 2.43086L94.0369 4.72049H96.5181L98.249 0.655647L100.3 2.72337L99.1495 4.72049H105.162L103.502 6.9395H99.2495V8.71472H104.362L102.701 10.7825H99.2395V12.5577H104.352L102.691 14.696H99.2295V16.5116H105.643L103.982 18.7306H90.7653V10.1571L89.1045 12.1542L87.7738 10.4092V10.7724H83.8818V12.5476H88.6042L86.9434 14.6859H83.8818V16.5015H89.6848L88.0239 18.7205H75.4777V18.7407ZM99.8598 20.5562L100.76 22.5533C99.2996 24.9741 96.8083 27.1326 93.3066 29.0188C96.7183 29.9871 100.93 30.6931 105.953 31.1268L102.241 34.1729C97.3386 33.6686 92.8864 32.6095 88.8744 31.0159C84.7423 32.5389 79.5097 33.6384 73.1665 34.3242L73.4567 31.0966C77.3486 30.8041 81.1505 30.1283 84.8724 29.0591C82.4912 27.7075 80.5302 26.1441 78.9694 24.379L80.8804 23.4712H73.8569L75.4777 20.7075L99.8598 20.5562ZM81.1305 8.71472V6.9395H78.3191V8.71472H81.1305ZM81.1305 12.5677V10.7825H78.3191V12.5577H81.1305V12.5677ZM81.1305 16.5216V14.7061H78.3191V16.5216H81.1305ZM95.7878 23.4611H82.5312C84.142 25.0548 86.3531 26.4366 89.1545 27.5966C91.9759 26.3862 94.187 25.0044 95.7878 23.4611ZM96.5482 8.71472V6.9395H93.6267V8.71472H96.5482ZM96.5482 12.5677V10.7825H93.6267V12.5577H96.5482V12.5677ZM96.5482 16.5216V14.7061H93.6267V16.5216H96.5482Z" fill="#939EA7"/>
<path d="M116.358 30.7536C119.26 30.8746 121.05 30.9251 121.721 30.8948C122.391 30.8444 122.801 30.7536 122.941 30.6023C123.111 30.4611 123.192 30.1887 123.192 29.8055V22.7248H107.884L109.545 19.4164H123.192V14.2622H110.335L111.996 11.0346H123.202V6.09221C119.19 6.43515 115.107 6.68731 110.955 6.85878L111.816 3.84292C122.431 3.3386 130.525 2.30978 136.088 0.75647L136.918 3.84292C134.807 4.49854 131.396 5.11382 126.693 5.69883V11.0346H139.88L138.299 14.2622H126.703V19.4164H141.971L140.31 22.7248H126.693V29.8458C126.693 30.9351 126.523 31.7421 126.193 32.2766C125.883 32.8314 125.343 33.2449 124.572 33.5072C123.422 33.9409 120.6 34.1326 116.108 34.0922L116.358 30.7536Z" fill="#939EA7"/>
<path d="M231.645 3.33862V29.9568C231.645 30.9453 231.515 31.7118 231.245 32.2464C230.985 32.8012 230.525 33.2046 229.875 33.4467C228.844 33.8804 226.323 34.0721 222.311 34.0317L222.851 30.7637C223.331 30.8141 224.842 30.8343 227.393 30.8343C227.733 30.8343 227.954 30.7738 228.074 30.6527C228.214 30.5115 228.294 30.2695 228.294 29.9265V23.4308H219.579V34.647L216.228 32.9726V23.4208H207.944C207.273 28.1614 205.773 31.8329 203.441 34.4251L202.221 33.1945L200.82 32.2162C202.041 30.8646 202.991 29.1801 203.662 27.1729C204.332 25.1657 204.742 23.3804 204.882 21.8372C205.022 20.2637 205.102 18.4078 205.102 16.2795V3.33862H231.645ZM208.274 20.2234H216.238V14.8473H208.424L208.274 20.2234ZM216.228 6.57637H208.414V11.7003H216.228V6.57637ZM228.294 11.6902V6.56629H219.579V11.6902H228.294ZM219.579 20.2234H228.294V14.8473H219.579V20.2234Z" fill="#939EA7"/>
<path d="M246.843 18.7002L236.798 19.4668L238.169 16.6728L239.389 16.6022V5.08351H236.578L238.239 2.36016H252.506L250.845 5.08351H249.904V34.9999L246.843 33.3256V18.7002V18.7002ZM238.099 29.9264L240.73 29.6339V27.2334H237.488L239.149 25.0547H240.73V23.0172H237.018L238.679 20.7679H246.713L245.052 23.0172H243.291V25.0547H246.393L244.732 27.2334H243.291V29.3414L246.933 28.938L245.352 31.4394L236.818 32.5288L238.099 29.9264ZM246.843 7.30252V5.08351H242.381V7.30252H246.843ZM246.843 11.7305V9.4812H242.381V11.7305H246.843ZM242.381 13.9092V16.4106L246.843 16.1181V13.8991H242.381V13.9092ZM270.905 19.3558L269.244 22.2204H259.739L264.172 25.0143L260.97 26.2146C260.13 25.2968 258.629 24.3789 256.468 23.4509L257.618 22.2204H250.375L252.036 19.3558H270.905ZM251.815 33.5878L250.415 30.5014C251.445 29.6037 252.296 27.4754 252.976 24.1066L254.997 26.6483C254.407 29.412 253.356 31.7218 251.815 33.5878ZM258.729 8.75498V6.50569H250.875L252.536 3.8227H258.729V0.120972L262.011 1.79532V3.83279H270.365L268.704 6.51578H262.001V8.76506H268.914V17.5201H252.306V8.76506H258.729V8.75498ZM257.258 15.0388V11.1858H254.847V15.0388H257.258ZM259.779 31.157H262.591C262.971 31.157 263.231 30.9754 263.351 30.6123C263.491 30.2492 263.591 29.1094 263.641 27.2031L266.053 29.9264C265.952 31.2074 265.682 32.1556 265.222 32.7607C264.792 33.3861 264.022 33.7089 262.921 33.7089H259.389C257.999 33.7089 257.068 33.4769 256.618 33.023C256.158 32.559 255.938 31.6512 255.938 30.2996V24.1671L258.749 25.8414V30.2694C258.749 30.6527 258.809 30.9149 258.929 31.036C259.029 31.1066 259.319 31.157 259.779 31.157ZM261.72 15.0388V11.1858H259.239V15.0388H261.72ZM263.671 25.0244L267.023 25.2766C267.603 25.8112 268.244 26.719 268.964 27.9999C269.684 29.2607 270.285 30.6628 270.765 32.2161L267.663 31.853C267.563 31.3486 267.173 30.4509 266.473 29.17C265.782 27.8486 264.842 26.4769 263.671 25.0244ZM263.701 11.1858V15.0388H266.293V11.1858H263.701Z" fill="#939EA7"/>
<path d="M306.093 24.5807L304.432 27.3041H291.285V30.8646C291.285 31.7119 291.165 32.3372 290.925 32.7508C290.705 33.1845 290.215 33.5375 289.444 33.7998C288.704 34.062 286.513 34.2032 282.891 34.2032L283.471 31.3387C286.163 31.4395 287.623 31.3992 287.863 31.2277C287.964 31.1571 288.004 31.0058 288.004 30.794V27.3041H273.276L274.937 24.5807H288.014V22.7248H289.884L293.166 20.7983H279.549L281.21 18.3271L297.919 18.1456L298.349 20.3243C296.648 21.7263 294.287 23.1485 291.285 24.5706H306.093V24.5807ZM277.538 16.2695V21.5346L274.367 19.8603V13.758H277.178L276.458 2.43087L278.579 2.90494L284.272 0.867475L284.412 3.2277L279.729 4.75076L279.799 6.02165H285.702L284.042 8.20033H279.94L280.01 9.87468H285.812L284.152 12.0937H280.15L280.22 13.7681H299.129L299.329 12.0937H293.676L295.337 9.87468H299.519L299.659 8.20033H293.826L295.487 6.02165H299.809L299.879 4.3473H293.686L295.347 2.12828H303.161C302.941 6.60667 302.691 10.4799 302.401 13.7479H305.102V21.5145L301.79 19.8401V16.2493H277.538V16.2695ZM294.037 5.96113L291.115 6.4352L289.814 5.34586C288.804 6.09226 287.533 6.89918 285.993 7.74644L285.632 5.42655C286.233 5.18447 286.993 4.74068 287.904 4.08506L285.132 2.45105L288.124 1.90638L289.674 2.74356L291.695 0.605225L292.846 2.49139L291.515 3.94384L294.037 5.96113ZM285.672 11.6902L288.084 10.1974L285.312 8.49283L288.334 7.98851L289.814 8.85595L291.976 6.53606L293.166 8.42223L291.685 10.0966L294.347 12.2753L291.425 12.7796L289.985 11.549C288.954 12.3459 287.643 13.1931 286.063 14.0908L285.672 11.6902Z" fill="#939EA7"/>
<path d="M324.031 16.562L327.563 17.1067L325.982 20.0116H338.088V34.2436H313.776V20.0116H323.391L323.281 16.8142L321.8 17.8632C321.85 18.0044 320.28 18.0851 317.078 18.0851L317.838 15.5029C318.299 15.5231 319.149 15.5433 320.4 15.5433C320.81 15.5433 321.01 15.3718 321.01 15.0389V5.37612H308.834L310.495 2.61243H324.222L324.031 16.562ZM318.379 13.7681L309.234 17.5807L309.454 14.1715C310.655 13.7882 313.956 12.6182 319.359 10.6816L318.379 13.7681ZM318.159 9.4107L315.137 10.5404C314.607 9.81416 312.986 8.6643 310.275 7.09082L313.406 5.89052C315.157 6.75796 316.748 7.92799 318.159 9.4107ZM334.447 25.7104V22.6946H317.268V25.7104H334.447ZM317.258 31.5202H334.437V28.3934H317.258V31.5202ZM341 2.61243V14.9986C341 15.7753 340.88 16.3804 340.64 16.8142C340.45 17.2277 340.029 17.5606 339.379 17.8329C338.759 18.1254 336.788 18.2666 333.476 18.2666L334.196 15.4727C334.697 15.5231 335.657 15.5433 337.078 15.5433C337.318 15.5231 337.488 15.4727 337.578 15.4021C337.648 15.3314 337.688 15.2003 337.688 14.9986V5.37612H325.552L327.213 2.61243H341ZM325.902 16.5923L326.223 13.3948C328.574 12.6686 332.035 11.4986 336.598 9.87468L335.627 13.0015C333.016 14.0202 329.774 15.2205 325.902 16.5923ZM334.587 9.22915L331.565 10.5C330.915 9.72338 329.244 8.57352 326.563 7.05047L329.734 5.85019C331.525 6.66719 333.146 7.79687 334.587 9.22915Z" fill="#939EA7"/>
<path d="M185.682 35.9905C185.732 36.0105 185.782 36.0105 185.832 36.0205C186.192 36.0805 186.572 36.0105 186.982 35.8005C187.102 35.7405 187.222 35.6605 187.352 35.5705C187.362 35.5605 187.462 35.4705 187.492 35.4405C187.492 35.4405 187.492 35.4405 187.492 35.4305C187.492 35.4305 187.492 35.4305 187.502 35.4205C188.552 34.1205 189.602 32.8205 190.252 31.9505C190.262 31.9405 190.272 31.9005 190.292 31.8605C190.572 31.8705 190.792 31.8505 191.072 31.6805C191.322 31.5305 191.512 31.2905 191.732 30.8805C192.422 29.6105 192.192 27.9605 192.762 26.6605C192.782 26.6105 192.822 26.3205 192.802 26.2605C192.592 25.1405 192.272 24.8805 191.862 24.5505C191.682 24.4005 191.472 24.2305 191.232 23.7205C191.232 23.7105 191.152 23.5905 191.152 23.5805C191.142 23.5705 191.132 23.5505 191.092 23.5005C191.712 19.9005 191.332 14.7605 189.392 11.5405C189.182 11.2005 188.922 11.1205 188.622 11.0305C188.572 11.0205 188.522 11.0005 188.502 10.9905C188.372 10.8105 188.272 10.5805 188.182 10.3605C188.172 10.3405 188.172 10.3305 188.162 10.3105C188.422 10.0005 188.652 9.68046 188.422 9.24046C186.752 5.96046 184.002 3.56046 180.752 2.02046C177.952 0.700458 174.772 0.0204615 171.592 0.000461539C168.412 -0.0195385 165.222 0.610461 162.402 1.89046C159.122 3.38046 156.342 5.75046 154.622 9.00046C154.622 9.00046 154.622 9.00046 154.622 9.01046C154.392 9.46046 154.622 9.77046 154.862 10.0805C154.852 10.1005 154.852 10.1105 154.842 10.1205C154.732 10.3605 154.612 10.6205 154.472 10.8005C154.152 10.8505 153.842 10.9105 153.612 11.2905C153.342 11.7305 153.092 12.1905 152.862 12.6805C152.642 13.1405 152.452 13.6305 152.292 14.1305C151.482 16.5605 151.342 20.5405 151.752 23.2305C151.712 23.2805 151.692 23.3005 151.692 23.3105C151.682 23.3205 151.612 23.4305 151.602 23.4405C151.352 23.9505 151.142 24.1205 150.962 24.2605C150.552 24.5805 150.232 24.8405 150.002 25.9605C149.992 26.0105 150.022 26.3005 150.042 26.3505C150.592 27.6605 150.342 29.3005 151.012 30.5805C151.232 30.9905 151.412 31.2305 151.662 31.3905C151.942 31.5605 152.162 31.5905 152.442 31.5805C152.462 31.6205 152.472 31.6505 152.482 31.6605L152.492 31.6705C153.122 32.5605 154.152 33.8705 155.192 35.1805C155.222 35.2205 155.212 35.2105 155.192 35.1805L155.202 35.1905C155.212 35.2005 155.332 35.3205 155.342 35.3305C155.472 35.4305 155.592 35.5005 155.712 35.5705C156.112 35.7905 156.502 35.8605 156.862 35.8005C157.012 35.7805 157.152 35.7305 157.282 35.6705L156.092 19.1205C156.092 19.1205 156.082 19.1205 156.082 19.1105C156.152 18.6105 154.632 20.0805 154.682 19.5705C154.802 18.4605 156.512 14.0405 156.902 13.0005C156.152 12.5505 155.902 12.2805 156.102 12.0405C156.302 11.6305 156.552 11.2405 156.832 10.8705C157.202 10.3805 157.632 9.89046 158.052 9.45046C158.062 9.43046 158.132 9.45046 158.212 9.44046C158.532 9.39046 158.842 9.34046 159.892 9.06046C159.982 8.98046 160.062 8.90046 160.152 8.81046C163.032 6.21046 167.302 4.94046 171.572 4.97046C175.842 5.00046 180.092 6.34046 182.932 8.97046C183.022 9.05046 183.112 9.14046 183.192 9.22046L183.202 9.23046C184.532 9.77046 184.722 9.29046 185.142 9.75046C185.472 10.1205 185.812 10.5105 186.102 10.9005C186.422 11.3205 186.712 11.7705 186.932 12.2305C187.112 12.4705 186.862 12.6905 186.122 13.2005C186.502 14.2405 188.072 18.5405 188.172 19.6605C188.212 20.1705 186.822 18.8505 186.882 19.3505L186.892 19.3705V19.4005V19.4105" fill="#939EA7"/>
<path d="M157.912 36.1304C158.132 36.1804 158.352 36.2004 158.582 36.1904H158.592C158.802 36.1804 159.002 36.1604 159.192 36.1104C159.382 36.0604 159.562 36.0004 159.742 35.9104C160.592 35.4904 161.152 34.6504 161.232 33.7204C161.232 33.7304 161.232 33.7404 161.232 33.7204V33.7104C161.262 33.3204 161.292 32.8104 161.312 32.1904C161.332 31.6004 161.332 30.9404 161.332 30.2304C161.302 26.6504 160.942 22.0304 159.652 20.0704C159.442 19.7604 159.222 19.4404 158.872 19.2104C158.512 18.9704 158.072 18.8004 157.662 18.7204C157.402 18.6704 157.122 18.6804 156.852 18.7204C156.762 18.7304 156.682 18.7504 156.612 18.7704" fill="#939EA7"/>
<path d="M181.442 33.8405C181.442 33.8505 181.442 33.8205 181.442 33.8505C181.452 34.0205 181.482 34.1905 181.532 34.3705C181.572 34.5405 181.642 34.7005 181.722 34.8705C182.042 35.5205 182.612 36.0405 183.362 36.2605C183.832 36.4005 184.382 36.4105 184.862 36.2905C184.922 36.2805 184.972 36.2605 185.032 36.2405L186.322 18.9605C186.062 18.8905 185.792 18.8705 185.532 18.8805C185.042 18.9005 184.562 19.0605 184.142 19.3105C183.272 19.8405 182.882 20.7405 182.582 21.6205C182.392 22.1805 182.232 22.8105 182.092 23.5005C181.392 26.9505 181.302 31.7105 181.442 33.8405Z" fill="#939EA7"/>
</svg>
