<svg width="522" height="74" viewBox="0 0 522 74" fill="none" xmlns="http://www.w3.org/2000/svg">
<path d="M64.4658 39.0273H41.433C46.5859 52.0097 56.9616 60.3984 72.5703 64.1933L62.8849 71.3835C57.0317 69.8856 51.7788 67.1892 47.1262 63.2945C42.4736 59.3498 38.6715 54.3066 35.7198 48.1649C31.0172 59.3997 20.3613 67.6586 3.75208 72.9614L1.65091 63.3045C16.5092 59.21 25.4641 51.1209 28.5158 39.0372H2.3213L6.22346 29.8996H29.7865V16.1881H0L3.90216 6.97058H70.3891L66.567 16.1881H39.2518V29.8996H68.368L64.4658 39.0273Z" fill="white"/>
<path d="M141.759 16.4777H113.543V28.2318L115.044 26.5042C127.101 32.546 136.156 37.9387 142.209 42.6823L132.524 48.6742C129.372 45.7781 123.038 41.6137 113.533 36.1611V73.6904L103.928 69.8656V16.4677H74.8816L78.7838 7.47986H145.641L141.759 16.4777Z" fill="white"/>
<path d="M164.872 11.7642V9.66701H150.093L153.996 5.17308H164.882V0.0799561L172.906 3.97469V5.17308H187.164L183.262 9.66701H172.906V11.7642H185.143L181.311 16.2581H152.415L156.247 11.7642H164.872ZM213.048 17.0071L214.629 20.2327C213.679 22.979 211.548 25.6754 208.246 28.3218C211.447 29.2206 215.27 29.8697 219.722 30.2692C218.171 31.9169 216.82 33.7844 215.67 35.8816H220.472L216.57 42.0233H208.246V59.999L220.472 59.7693L216.05 66.3604L208.246 66.5901V73.9302L199.391 70.0354V66.8098C189.885 67.0594 173.526 67.379 150.314 67.7885L153.996 60.748L162.55 60.6781V42.0233H150.243L154.146 35.8816H154.746L150.764 33.6346C153.615 31.0881 155.036 27.5428 155.036 22.999V18.1256H183.322V30.409H160.889L158.118 35.8816H187.384L184.082 30.3391C188.084 29.8897 191.586 29.1906 194.588 28.2419C192.487 26.4943 190.786 24.6468 189.485 22.6994L191.887 22.0303H186.864V17.3067L183.712 14.2408L188.895 11.2449C189.795 10.1464 190.246 8.87807 190.246 7.42004V3.6751H210.577V10.2662L212.528 10.4959C213.329 10.4959 213.799 10.2462 213.949 9.7469L214.469 4.13447L219.052 10.7256L218.531 13.7215C217.581 15.3693 215.73 16.1982 212.978 16.1982H209.676C207.625 16.1982 206.125 15.7288 205.174 14.7801C204.273 13.8314 203.793 12.0837 203.753 9.53718H196.919C196.469 12.6829 194.968 15.2594 192.417 17.2567L213.048 17.0071ZM165.852 22.4697H161.8V26.0648H165.852V22.4697ZM199.391 44.6397V42.0233H171.175V44.6397H199.391ZM199.391 52.5091V49.8128H171.175V52.5091H199.391ZM171.175 57.6721V60.5183C176.928 60.4684 186.334 60.3485 199.391 60.1388V57.6721H171.175ZM176.508 26.0648V22.4697H172.076V26.0648H176.508ZM189.635 35.8816H213.569C209.116 35.1326 205.084 33.9642 201.492 32.3663C198.09 33.8543 194.138 35.0327 189.635 35.8816ZM205.464 22.0203H196.609C197.76 23.2187 199.261 24.3671 201.112 25.4656C202.963 24.3172 204.414 23.1688 205.464 22.0203Z" fill="white"/>
<path d="M278.255 25.9949H297.095L293.193 34.2337H223.634L227.536 25.9949H243.065L239.763 17.1568L242.915 16.5576H227.907L231.809 8.39866H255.302V0.15979L264.987 4.05452V8.39866H293.573L289.751 16.5576H279.245L282.547 17.2367L278.255 25.9949ZM236.541 71.9028V38.9474H285.549V71.9028H236.541ZM275.783 46.5171H245.837V51.8399H275.783V46.5171ZM245.837 64.2632H275.783V58.8005H245.837V64.2632ZM271.881 16.5576H249.519L253.041 25.4756L250.709 25.9949H270.45L268.499 25.5455L271.881 16.5576Z" fill="white"/>
<path d="M324.19 16.6276L321.108 24.6368C313.604 26.8338 307.251 28.6613 302.048 30.1094L302.648 21.4211C305.3 20.9218 312.474 19.3239 324.19 16.6276ZM325.531 9.21759L317.957 14.5304C315.055 12.8327 309.802 10.8654 302.198 8.61841L309.852 3.67509C314.705 4.82354 319.928 6.67103 325.531 9.21759ZM361.031 59.3998H348.043C356.098 62.2459 363.802 65.4217 371.156 68.9169L357.349 71.3137C353.496 68.9669 347.563 66.3005 339.569 63.3045L346.322 59.4098H324.41L331.244 62.4057C325.291 66.3005 316.886 69.7758 306.03 72.8216L303.178 65.2519C310.282 64.0036 316.506 62.0562 321.859 59.4098H310.823V29.0009H326.511C325.411 26.8038 324.23 25.0862 322.979 23.8279C328.683 22.8292 332.815 21.531 335.366 19.9331C337.968 18.2853 339.689 16.0683 340.539 13.2721H335.136C333.235 15.569 330.754 17.9957 327.702 20.5323L323.88 13.7914C327.932 11.145 331.454 6.68102 334.456 0.389526L340.459 5.03326L339.409 6.98063L364.843 6.76092L367.844 9.90666L360.64 21.2114L355.908 15.8187L357.709 13.2721H349.384L355.307 20.0829C358.359 21.8306 364.032 23.2287 372.337 24.2772L364.082 30.8683L361.011 30.2691V59.3998H361.031ZM319.457 34.3037V37.5293H351.956V34.3037H319.457ZM319.457 42.5426V45.7682H351.956V42.5426H319.457ZM319.457 50.7814V54.077H351.956V50.7814H319.457ZM331.614 28.9909H356.828C351.625 27.0934 347.793 24.3971 345.342 20.9018C342.69 24.447 338.118 27.1434 331.614 28.9909Z" fill="white"/>
<path d="M407.626 49.8127L399.972 53.5576L395.47 45.4686V73.7004L387.215 69.8057V45.3188C384.364 53.5576 381.182 60.2486 377.68 65.3916L375.579 52.8885C378.63 49.4432 381.582 43.5212 384.434 35.1425H373.928L377.83 26.8238H387.215V0.389473L395.47 4.28422V26.8238H408.527L404.625 35.1425H395.47V35.6618C396.52 36.7104 398.371 38.8076 401.023 41.9533C403.734 45.0391 405.926 47.6656 407.626 49.8127ZM386.095 25.6154L378.971 23.5182C378.971 19.8232 377.77 14.061 375.369 6.21161L382.573 8.45857C384.314 12.9625 385.494 18.6748 386.095 25.6154ZM400.803 4.19433L407.326 9.58705C404.575 18.0256 402.574 23.8478 401.323 27.0435L396.74 21.7306C398.251 17.3266 399.602 11.4845 400.803 4.19433ZM405.605 29.8097L413.029 25.4656C417.632 27.8623 421.784 30.8084 425.486 34.3036L418.062 38.9474C416.511 37 412.359 33.9541 405.605 29.8097ZM444.177 50.332L437.053 51.6802V73.8502L428.648 69.9555V53.1781L405.835 57.2227L408.237 48.3147L428.648 44.6397V0L437.053 3.89475V43.1417L446.588 41.414L444.177 50.332ZM428.268 16.4078L420.914 20.4524C419.613 18.6049 415.681 15.4391 409.127 10.9452L416.481 7.13036C420.994 9.66694 424.916 12.7628 428.268 16.4078Z" fill="white"/>
<path d="M522 56.7733L518.098 63.9635H495.735V74L487.181 70.1052V63.9635H462.567L466.469 56.7733H487.181V53.258H469.771V29.8097H487.181V26.4343H465.639L469.541 19.7733H487.171V15.6588H464.808V32.0567C464.808 50.332 462.127 63.614 456.774 71.9028L453.392 69.1266L449.64 66.8796C451.541 63.8337 453.022 60.0688 454.072 55.5749C455.123 51.081 455.743 47.1862 455.953 43.8907C456.153 40.5452 456.253 36.6005 456.253 32.0567V7.86934H483.118V0.14978L492.423 4.04451V7.86934H521.32L517.497 15.6588H495.735V19.7733H519.449L515.546 26.4343H495.735V29.8097H514.046V53.258H495.735V56.7733H522V56.7733ZM477.565 35.2823V38.9573H487.171V35.2823H477.565ZM477.565 47.7155H487.171V44.0405H477.565V47.7155ZM505.861 35.2823H495.735V38.9573H505.861V35.2823ZM505.861 47.7155V44.0405H495.735V47.7155H505.861Z" fill="white"/>
</svg>
